<?xml version="1.0" encoding="utf-8"?>
<!-- Generator: Adobe Illustrator 16.0.0, SVG Export Plug-In . SVG Version: 6.00 Build 0)  -->
<!DOCTYPE svg PUBLIC "-//W3C//DTD SVG 1.1//EN" "http://www.w3.org/Graphics/SVG/1.1/DTD/svg11.dtd">
<svg version="1.1" id="Layer_1" xmlns="http://www.w3.org/2000/svg" xmlns:xlink="http://www.w3.org/1999/xlink" x="0px" y="0px"
	 width="100px" height="100px" viewBox="0 0 100 100" enable-background="new 0 0 100 100" xml:space="preserve">
<path fill="#F0C419" d="M-8.19-4.767C-9.476-1.863-9.665,1.37-10.285,4.49c-1.119,5.63-2.277,11.425-3.785,17.004
	c-2.367,8.758-4.674,17.284-3.471,26.431c0.877,6.669-0.344,13.576,0.845,20.208c0.949,5.295,3.388,10.521,3.376,15.963
	c-0.013,6.25,0.1,15.865,5.086,20.213c1.178,1.025,2.854,1.594,4.411,1.668c1.956,0.092,2.675-0.836,4.222-1.525
	c2.495-1.111,6.836-1.1,9.646-0.945c4.327,0.24,8.22,1.848,12.536,2.322c3.844,0.422,7.723,0.531,11.618,0.527
	c0.003,0.012-0.006,0.018-0.028,0.016c9.846-0.221,19.498-0.965,29.347-0.965c6.342,0,13.824-1.418,19.732,0.949
	c6.234,0.32,22.041,2.264,27.096-5.461c1.061-1.619,1.104-3.438,1.658-5.219c0.666-2.135,1.736-4.08,2.559-6.18
	c1.965-5.018,3.867-10.521,4.338-16.008c0.42-4.916,0.67-9.629,1.361-14.469c2.641-18.473,3.553-37.896-4.031-55.091
	c-1.43-3.239-3.002-6.983-5.941-9.212c-3.398-2.576-8.307-4.812-12.441-5.804c-4.578-1.098-9.342-1.153-14.084-0.142
	c-5.631,1.201-11.713,1.333-17.496,1.334c-10.086,0.001-19.876,1.306-29.966,1.33c-7.966,0.019-16.514-0.539-24.167,1.561
	C9.599-6.309,7.382-6.277,4.769-5.864c-2.052,0.324-3.963,1.14-6.121,1.245c-2.231,0.109-4.57-0.134-6.654,0.417
	c-2.103,0.556-3.895,0.955-6.263,0.955"/>
<path d="M77.105,36.714L49.327,51.751l-0.072-31.185c-16.741,0.37-30.223,14.074-30.223,30.89c0,17.036,13.852,30.888,30.888,30.888
	c17.037,0,30.889-13.852,30.889-30.888C80.883,46.122,79.549,41.085,77.105,36.714z"/>
<path d="M78.809,33.826L50.883,48.937l-0.074-31.259c2.666-0.074,9.777,0.074,16.518,4.148
	C73.994,25.826,77.549,31.455,78.809,33.826z"/>
</svg>
