<?xml version="1.0" encoding="utf-8"?>
<!-- Generator: Adobe Illustrator 16.0.0, SVG Export Plug-In . SVG Version: 6.00 Build 0)  -->
<!DOCTYPE svg PUBLIC "-//W3C//DTD SVG 1.1//EN" "http://www.w3.org/Graphics/SVG/1.1/DTD/svg11.dtd">
<svg version="1.1" id="Layer_1" xmlns="http://www.w3.org/2000/svg" xmlns:xlink="http://www.w3.org/1999/xlink" x="0px" y="0px"
	 width="100px" height="100px" viewBox="0 0 100 100" enable-background="new 0 0 100 100" xml:space="preserve">
<path id="XMLID_1_" fill="#FF9933" stroke="#FF9933" stroke-miterlimit="10" d="M99.385,51.394C99.385,79.667,77.879,100,49.604,100
	C21.33,100,0.211,79.667,0.211,51.394c0-28.276,21.313-50.187,49.587-50.187C78.073,1.207,99.385,23.115,99.385,51.394z"/>
<path d="M74.087,61.856c0-3.814-3.101-6.918-6.912-6.918h-0.766c2.756-2.602,4.405-6.273,4.407-10.154
	c0-7.69-6.256-13.947-13.946-13.947c-2.746,0-5.31,0.797-7.47,2.173l0,0c-0.104-0.359-0.19-0.593-0.331-0.935
	c-1.579-3.866-5.381-6.594-9.807-6.594c-5.842,0-10.592,4.751-10.592,10.592c-0.004,2.287,0.715,4.465,2.074,6.297
	c0.862,1.161,1.926,2.119,3.17,2.848c0.254,0.148,0.517,0.287,0.781,0.414h-4.105c-2.6,0-4.711,2.113-4.711,4.715l0.027,10.529
	h13.678l0.033,13.979c0.002,0.705,0.098,0.871,0.803,0.871h32.998c0.338,0,0.701-0.396,0.701-0.738L74.087,61.856z M42.171,73.171
	l-0.029-11.314c0-2.404,1.956-4.363,4.361-4.363h4.9c0.547,0,1.031-0.352,1.205-0.869c0.176-0.518-0.002-1.094-0.438-1.426
	c-0.066-0.053-0.142-0.098-0.217-0.135c-0.285-0.139-0.563-0.285-0.834-0.445c-1.33-0.777-2.479-1.81-3.412-3.063
	c-1.459-1.973-2.231-4.313-2.229-6.771c0-6.283,5.109-11.393,11.391-11.393c6.283,0,11.394,5.109,11.394,11.393
	c-0.002,4.361-2.552,8.399-6.496,10.284c-0.539,0.259-0.828,0.854-0.697,1.437c0.134,0.582,0.65,0.994,1.246,0.994h0.002
	l4.856-0.004c2.404,0,4.361,1.957,4.361,4.364l0.027,11.312H42.171L42.171,73.171z"/>
</svg>
