<?xml version="1.0" encoding="utf-8"?>
<!-- Generator: Adobe Illustrator 16.0.0, SVG Export Plug-In . SVG Version: 6.00 Build 0)  -->
<!DOCTYPE svg PUBLIC "-//W3C//DTD SVG 1.1//EN" "http://www.w3.org/Graphics/SVG/1.1/DTD/svg11.dtd">
<svg version="1.1" id="Calque_1" xmlns="http://www.w3.org/2000/svg" xmlns:xlink="http://www.w3.org/1999/xlink" x="0px" y="0px"
	 width="90px" height="90px" viewBox="0 0 90 90" enable-background="new 0 0 90 90" xml:space="preserve">
<path fill="#3FDD82" d="M-6.078-12.748c-4.427,0.547-8.793,1.265-12.633,3.599c-4.412,2.681-7.982,7.085-11.114,11.102
	c-4.291,5.503-6.967,13.254-9.991,19.563c-3.096,6.461-5.55,13.345-6.194,20.482c-1,11.09-1.302,24.301,3.17,34.609
	c2.354,5.426,5.018,10.379,8.499,15.205c3.391,4.698,7.139,7.426,11.895,10.549c3.201,2.102,6.292,5.1,10.001,6.227
	c4.285,1.303,9.055,1.717,13.454,2.525c5.18,0.955,10.12,2.557,15.428,2.928c6.759,0.471,13.532,1,20.312,1.404
	c16.88,1.008,33.099-2.453,49.67-5.002c11.481-1.767,24.354-3.666,34.296-10.232c4.668-3.084,6.311-9.375,8.004-14.428
	c2.189-6.539,3.508-13.256,4.338-20.082c0.693-5.725,1.092-11.945-0.158-17.57c-1.145-5.148-1.578-9.966-2.264-15.156
	c-1.33-10.075-5.807-20.512-10.873-29.268C115.814-3.116,112.1-8.2,105.77-12.522c-4.492-3.068-10.572-4.072-15.961-4.061
	c-7.72,0.017-15.949-0.51-23.644,0.227c-6.836,0.654-13.763,2.082-20.632,2.694c-5.694,0.508-11.585,0.049-17.269-0.219
	c-4.003-0.188-8.084-0.167-11.996,0.017c-4.005,0.188-6.677,2.173-10.389,2.871c-8.031,1.51-14.603,0.177-22.516-1.31
	c-1.803-0.338-4.143-0.701-5.91-0.22"/>
<g>
	<path d="M21.361,33.298c1.784,0,3.236-1.451,3.236-3.235s-1.451-3.235-3.236-3.235c-1.783,0-3.234,1.451-3.234,3.235
		S19.578,33.298,21.361,33.298z"/>
	<path d="M37.085,33.298c1.784,0,3.235-1.451,3.235-3.235s-1.451-3.235-3.235-3.235s-3.235,1.451-3.235,3.235
		S35.301,33.298,37.085,33.298z M37.085,27.323c1.511,0,2.738,1.229,2.738,2.739S38.596,32.8,37.085,32.8
		c-1.511,0-2.739-1.228-2.739-2.737C34.346,28.552,35.574,27.323,37.085,27.323z"/>
	<path d="M52.809,33.298c1.782,0,3.235-1.451,3.235-3.235s-1.453-3.235-3.235-3.235c-1.785,0-3.235,1.451-3.235,3.235
		S51.021,33.298,52.809,33.298z"/>
	<path d="M68.525,33.298c1.781,0,3.234-1.451,3.234-3.235s-1.453-3.235-3.234-3.235c-1.784,0-3.235,1.451-3.235,3.235
		S66.741,33.298,68.525,33.298z M68.525,27.323c1.51,0,2.738,1.229,2.738,2.739S70.035,32.8,68.525,32.8
		c-1.512,0-2.738-1.228-2.738-2.737C65.787,28.552,67.016,27.323,68.525,27.323z"/>
	<path d="M76.604,46.077c-0.715-9.294-4.506-11.235-4.631-11.292c-0.059-0.041-1.457-0.998-3.453-0.998
		c-1.555,0-3.024,0.575-4.398,1.733c-2.202,2.322-2.953,5.689-3.378,9.113c-0.974-8.051-4.37-9.796-4.489-9.849
		c-0.059-0.041-1.457-0.998-3.454-0.998c-1.553,0-3.022,0.575-4.396,1.733c-2.207,2.326-2.959,5.701-3.383,9.133
		c-0.969-8.068-4.371-9.814-4.489-9.868c-0.059-0.041-1.457-0.998-3.455-0.998c-1.552,0-3.023,0.575-4.396,1.733
		c-2.207,2.326-2.959,5.701-3.383,9.133c-0.969-8.068-4.371-9.814-4.488-9.868c-0.059-0.041-1.457-0.998-3.455-0.998
		c-1.553,0-3.025,0.575-4.398,1.733c-2.551,2.689-3.156,6.779-3.561,10.738c-0.064,0.647,0.135,1.062,0.313,1.293
		c0.271,0.351,0.689,0.55,1.15,0.55c0.791,0,1.652-0.605,1.771-1.765c0.17-1.662,0.4-3.52,0.992-5.217L17.6,61.182
		c0,1.135,0.723,1.99,1.681,1.99c0.972,0,1.762-0.895,1.762-1.99V49.326h0.731v11.895c0,2.393,3.232,2.393,3.232,0v-8.562
		l0.113-10.771l0.002-1.227c0.663,1.768,0.91,3.729,1.088,5.481c0.118,1.157,0.979,1.765,1.771,1.765c0.461,0,0.879-0.2,1.146-0.548
		c0.037-0.049,0.074-0.108,0.11-0.172c0.059,0.146,0.127,0.272,0.196,0.363C29.7,47.9,30.118,48.1,30.578,48.1
		c0.791,0,1.652-0.604,1.771-1.764c0.169-1.662,0.4-3.52,0.991-5.217L33.319,61.18c0,1.137,0.723,1.992,1.682,1.992
		c0.971,0,1.762-0.895,1.762-1.992V49.326h0.729v11.895c0,1.196,0.808,1.795,1.617,1.795s1.617-0.599,1.617-1.795v-8.562
		l0.113-10.771l0.001-1.227c0.664,1.768,0.91,3.729,1.088,5.481c0.119,1.157,0.98,1.765,1.771,1.765c0.462,0,0.88-0.2,1.147-0.548
		c0.037-0.049,0.074-0.108,0.109-0.172c0.059,0.146,0.127,0.272,0.196,0.363c0.267,0.35,0.687,0.549,1.147,0.549
		c0.791,0,1.652-0.604,1.771-1.764c0.17-1.662,0.398-3.52,0.99-5.217l-0.02,20.061c0,1.137,0.723,1.992,1.682,1.992
		c0.973,0,1.762-0.895,1.762-1.992V49.326h0.729v11.895c0,2.393,3.233,2.393,3.233,0v-8.562l0.115-10.771v-1.227
		c0.662,1.768,0.91,3.729,1.09,5.481c0.117,1.157,0.979,1.765,1.771,1.765c0.462,0,0.88-0.2,1.146-0.548
		c0.037-0.047,0.074-0.106,0.107-0.168c0.059,0.146,0.126,0.271,0.195,0.358c0.268,0.351,0.688,0.55,1.146,0.55
		c0.791,0,1.653-0.605,1.771-1.764c0.17-1.664,0.4-3.52,0.99-5.217L64.759,61.18c0,1.137,0.724,1.991,1.683,1.991
		c0.971,0,1.76-0.894,1.76-1.991V49.326h0.73v11.895c0,1.196,0.809,1.795,1.616,1.795s1.617-0.599,1.617-1.795v-8.562l0.112-10.771
		v-1.227c0.664,1.768,0.912,3.729,1.092,5.481c0.115,1.157,0.979,1.765,1.771,1.765c0.461,0,0.879-0.2,1.146-0.548
		C76.471,47.126,76.669,46.714,76.604,46.077z M44.456,47.059c-0.172,0.225-0.447,0.352-0.753,0.352
		c-0.568,0-1.188-0.451-1.277-1.315c-0.178-1.744-0.424-3.761-1.117-5.605c-0.074-0.197-0.262-0.322-0.465-0.322
		c-0.029,0-0.06,0.002-0.09,0.008c-0.236,0.043-0.408,0.249-0.408,0.49v1.221l-0.113,10.775v8.563c0,0.896-0.563,1.297-1.12,1.297
		c-0.557,0-1.12-0.401-1.12-1.297V49.326c0-0.274-0.223-0.497-0.497-0.497h-0.729c-0.275,0-0.498,0.223-0.498,0.497V61.18
		c0,0.824-0.566,1.495-1.264,1.495c-0.676,0-1.184-0.642-1.184-1.495l0.02-20.061c0-0.243-0.175-0.449-0.414-0.49
		c-0.028-0.004-0.056-0.008-0.083-0.008c-0.208,0-0.398,0.131-0.469,0.334c-0.618,1.773-0.849,3.682-1.017,5.33
		c-0.089,0.863-0.709,1.316-1.277,1.316c-0.306,0-0.58-0.131-0.753-0.354c-0.124-0.162-0.262-0.456-0.214-0.938
		c0.395-3.865,0.981-7.853,3.408-10.429c1.266-1.062,2.631-1.601,4.057-1.601c1.836,0,3.117,0.874,3.172,0.911
		c0.02,0.015,0.049,0.031,0.071,0.042c0.037,0.018,3.655,1.888,4.348,10.893C44.718,46.604,44.581,46.896,44.456,47.059z
		 M75.896,47.059c-0.172,0.225-0.446,0.352-0.754,0.352c-0.567,0-1.188-0.451-1.275-1.315c-0.18-1.744-0.426-3.761-1.118-5.605
		c-0.074-0.197-0.263-0.322-0.467-0.322c-0.027,0-0.058,0.002-0.087,0.008c-0.237,0.043-0.409,0.249-0.409,0.49v1.221L71.673,52.66
		v8.563c0,0.896-0.563,1.297-1.121,1.297c-0.557,0-1.118-0.4-1.118-1.297V49.326c0-0.274-0.226-0.497-0.498-0.497h-0.729
		c-0.274,0-0.497,0.223-0.497,0.497V61.18c0,0.824-0.568,1.495-1.264,1.495c-0.676,0-1.186-0.642-1.186-1.495l0.02-20.061
		c0-0.243-0.174-0.449-0.412-0.49c-0.029-0.004-0.059-0.008-0.085-0.008c-0.208,0-0.397,0.131-0.468,0.334
		c-0.619,1.773-0.851,3.682-1.019,5.33c-0.088,0.863-0.709,1.316-1.276,1.316c-0.306,0-0.578-0.131-0.752-0.354
		c-0.125-0.162-0.263-0.456-0.213-0.938c0.393-3.865,0.979-7.853,3.407-10.429c1.267-1.062,2.63-1.601,4.058-1.601
		c1.836,0,3.116,0.874,3.172,0.911c0.02,0.015,0.049,0.031,0.069,0.042c0.037,0.018,3.656,1.888,4.349,10.893
		C76.158,46.604,76.021,46.896,75.896,47.059z"/>
</g>
</svg>
