<?xml version="1.0" encoding="utf-8"?>
<!-- Generator: Adobe Illustrator 16.0.0, SVG Export Plug-In . SVG Version: 6.00 Build 0)  -->
<!DOCTYPE svg PUBLIC "-//W3C//DTD SVG 1.1//EN" "http://www.w3.org/Graphics/SVG/1.1/DTD/svg11.dtd">
<svg version="1.1" id="Layer_1" xmlns="http://www.w3.org/2000/svg" xmlns:xlink="http://www.w3.org/1999/xlink" x="0px" y="0px"
	 width="100px" height="100px" viewBox="0 0 100 100" enable-background="new 0 0 100 100" xml:space="preserve">
<path id="XMLID_1_" stroke="#FF9933" stroke-width="3" stroke-miterlimit="10" d="M99.279,50.785
	c0,28.099-21.373,48.305-49.473,48.305C21.707,99.09,0.72,78.884,0.72,50.785C0.721,22.685,21.901,0.91,50,0.91
	C78.1,0.91,99.279,22.682,99.279,50.785z"/>
<path fill="#FF9933" d="M74.087,61.855c0-3.813-3.101-6.918-6.912-6.918h-0.766c2.756-2.603,4.405-6.272,4.407-10.153
	c0-7.69-6.256-13.947-13.946-13.947c-2.746,0-5.31,0.797-7.47,2.173l0,0c-0.104-0.359-0.19-0.593-0.331-0.935
	c-1.579-3.866-5.381-6.594-9.807-6.594c-5.842,0-10.592,4.751-10.592,10.592c-0.004,2.287,0.715,4.465,2.074,6.297
	c0.862,1.161,1.926,2.119,3.17,2.848c0.254,0.148,0.517,0.287,0.781,0.414H30.59c-2.6,0-4.711,2.113-4.711,4.715l0.027,10.529
	h13.678l0.033,13.979c0.002,0.705,0.098,0.871,0.803,0.871h32.998c0.338,0,0.701-0.396,0.701-0.738L74.087,61.855z M42.171,73.171
	l-0.029-11.313c0-2.403,1.956-4.362,4.361-4.362h4.899c0.548,0,1.031-0.353,1.205-0.869c0.177-0.519-0.002-1.094-0.438-1.426
	c-0.065-0.054-0.144-0.099-0.217-0.136c-0.285-0.14-0.563-0.284-0.834-0.444c-1.33-0.777-2.479-1.812-3.412-3.063
	c-1.459-1.974-2.231-4.313-2.229-6.771c0-6.283,5.109-11.393,11.391-11.393s11.396,5.109,11.396,11.393
	c-0.002,4.361-2.554,8.397-6.496,10.282c-0.539,0.261-0.828,0.854-0.697,1.438c0.134,0.582,0.65,0.994,1.246,0.994h0.002
	l4.854-0.004c2.404,0,4.361,1.957,4.361,4.362l0.026,11.313L42.171,73.171L42.171,73.171z"/>
</svg>
