<?xml version="1.0" encoding="utf-8"?>
<!-- Generator: Adobe Illustrator 16.0.0, SVG Export Plug-In . SVG Version: 6.00 Build 0)  -->
<!DOCTYPE svg PUBLIC "-//W3C//DTD SVG 1.1//EN" "http://www.w3.org/Graphics/SVG/1.1/DTD/svg11.dtd">
<svg version="1.1" id="Your_Icon" xmlns="http://www.w3.org/2000/svg" xmlns:xlink="http://www.w3.org/1999/xlink" x="0px" y="0px"
	 width="100px" height="100px" viewBox="0 0 100 100" enable-background="new 0 0 100 100" xml:space="preserve">
<path fill="#E74C3C" d="M-3.094-10.176c-1.542,2.571-4.302,4.448-6.008,7.145c-2.79,4.412-5.971,8.722-8.851,13.158
	C-24.597,20.358-32,30.25-33.817,42.658c-1.392,9.497-0.768,19.244-1.203,28.871c-0.199,4.4-0.623,8.908,0.815,13.082
	c1.906,5.535,4.503,10.881,6.519,16.434c1.84,5.069,5.193,13.027,9.668,16.342c2.366,1.754,5.716,2.15,8.403,3.191
	c3.316,1.283,6.641,2.543,10.253,2.796c8.722,0.608,17.61-0.252,26.31-0.253c9.48-0.002,18.962,0.783,28.434,1.277
	c5.026,0.263,10.072-0.17,15.078,0.246c3.903,0.326,7.707,1.532,11.612,1.771c7.404,0.45,13.664,0.846,20.564-2.034
	c6.188-2.584,11.857-7.1,16.725-11.921c4.125-4.085,7.07-8.701,6.097-14.633c-0.81-4.916-4.457-8.403-6.14-12.882
	c-1.592-4.235-1.766-10.334-1.766-14.965c0-11.061-2-21.662-3.787-32.407c-1.511-9.074-0.633-18.209,0.695-27.262
	c1.639-11.16-4.011-23.849-14.48-28.027c-11.268-4.496-23.701-3.044-35.474-1.321c-6.837,1.001-13.705,1.802-20.488,2.784
	c-3.675,0.532-7.022,1.527-10.811,1.523c-3.551-0.004-7.008-0.058-10.391,0.815c-5.709,1.474-11.147,3.598-17.073,4.497
	C2.297-8.895-1.25-8.601-4.612-7.956c-3.086,0.592-5.525,1.574-8.853,1.574"/>
<path d="M30.941,25.698v48.614c0,1.072,0.865,1.938,1.938,1.938h31.116c1.071,0,1.938-0.865,1.938-1.938V67.51h-2.916v5.834H33.859
	V26.677h29.167v5.833h2.916v-6.813c0-1.073-0.862-1.938-1.938-1.938H32.879C31.807,23.76,30.941,24.625,30.941,25.698z"/>
<polygon points="68.859,35.427 66.964,37.323 78.191,48.552 52.829,48.552 51.286,49.927 52.829,51.469 78.191,51.469 
	66.964,62.697 68.859,64.594 83.441,50.011 "/>
</svg>
