<?xml version="1.0" encoding="utf-8"?>
<!-- Generator: Adobe Illustrator 16.0.0, SVG Export Plug-In . SVG Version: 6.00 Build 0)  -->
<!DOCTYPE svg PUBLIC "-//W3C//DTD SVG 1.1//EN" "http://www.w3.org/Graphics/SVG/1.1/DTD/svg11.dtd">
<svg version="1.1" id="Your_Icon" xmlns="http://www.w3.org/2000/svg" xmlns:xlink="http://www.w3.org/1999/xlink" x="0px" y="0px"
	 width="100px" height="100px" viewBox="0 0 100 100" enable-background="new 0 0 100 100" xml:space="preserve">
<path id="XMLID_1_" fill="#FF9933" stroke="#FF9933" stroke-miterlimit="10" d="M99.279,50.785
	c0,28.098-21.373,48.305-49.473,48.305C21.707,99.09,0.72,78.883,0.72,50.785C0.721,22.684,21.901,0.91,50,0.91
	C78.1,0.91,99.279,22.682,99.279,50.785z"/>
<path d="M30.691,25.694v48.614c0,1.071,0.865,1.938,1.938,1.938h31.116c1.071,0,1.938-0.865,1.938-1.938v-6.803h-2.916v5.834H33.609
	V26.673h29.166v5.833h2.916v-6.813c0-1.073-0.861-1.938-1.938-1.938H32.629C31.557,23.756,30.691,24.621,30.691,25.694z"/>
<polygon points="68.609,35.423 66.714,37.319 77.941,48.548 52.579,48.548 51.036,49.923 52.579,51.465 77.941,51.465 
	66.714,62.693 68.609,64.59 83.191,50.007 "/>
</svg>
