<?xml version="1.0" encoding="utf-8"?>
<!-- Generator: Adobe Illustrator 16.0.0, SVG Export Plug-In . SVG Version: 6.00 Build 0)  -->
<!DOCTYPE svg PUBLIC "-//W3C//DTD SVG 1.1//EN" "http://www.w3.org/Graphics/SVG/1.1/DTD/svg11.dtd">
<svg version="1.1" id="Capa_1" xmlns="http://www.w3.org/2000/svg" xmlns:xlink="http://www.w3.org/1999/xlink" x="0px" y="0px"
	 width="100px" height="100px" viewBox="0 0 100 100" enable-background="new 0 0 100 100" xml:space="preserve">
<path fill="#3B97D3" d="M15.708-17.626c-4.63-2.287-11.665-0.439-16.562,0.014c-10.14,0.938-19.856,1.126-28.62,7.094
	C-35.887-6.152-42.196,0.829-44.261,8.31c-1.43,5.181-2.744,10.725-3.62,16.06c-0.688,4.189-1.943,8.459-1.615,12.774
	c0.968,12.76,7.737,25.282,15.894,34.911c5.332,6.293,10.78,11.816,16.806,17.48c5.256,4.939,10.616,10.008,17.117,13.281
	c8.946,4.506,19.174,6.309,27.911,10.68c4.159,2.08,7.896,4.359,12.33,6.113c10.116,4.002,23.093,2.971,33.716,1.703
	c12.449-1.486,23.76-4.467,35.33-9.127c6.254-2.518,9.398-5.713,14.338-10.164c5.176-4.664,4.955-11.467,4.947-18.52
	c-0.023-20.684-2.654-40.58-7.244-60.753c-2.627-11.556-5.887-23.702-10.795-34.461c-2.373-5.203-7.258-8.143-12.916-8.521
	c-3.623-0.243-7.324-0.667-10.969-0.522c-3.902,0.154-7.623,1.4-11.531,1.565c-9.641,0.407-19.055-1.565-28.688-1.565
	c-7.218,0-14.262-0.782-21.451-0.782c-5.166,0-10.318-0.033-15.329-0.535c-3.857-0.386-10.619-0.995-13.835,1.318
	c-1.877,1.35-2.719,4.761-3.898,6.78"/>
<g>
	<polygon points="32.43,17.591 32.43,29.798 37.171,29.798 37.171,22.331 69.882,22.331 69.882,78.035 37.171,78.035 37.171,70.568 
		32.43,70.568 32.43,82.775 74.623,82.775 74.623,17.591 	"/>
	<polygon points="41.807,61.478 59.137,50.619 41.807,39.762 41.807,46.59 22.211,46.59 22.211,54.649 41.807,54.649 	"/>
</g>
</svg>
