<?xml version="1.0" encoding="utf-8"?>
<!-- Generator: Adobe Illustrator 16.0.0, SVG Export Plug-In . SVG Version: 6.00 Build 0)  -->
<!DOCTYPE svg PUBLIC "-//W3C//DTD SVG 1.1//EN" "http://www.w3.org/Graphics/SVG/1.1/DTD/svg11.dtd">
<svg version="1.1" id="Layer_1" xmlns="http://www.w3.org/2000/svg" xmlns:xlink="http://www.w3.org/1999/xlink" x="0px" y="0px"
	 width="45px" height="45px" viewBox="0 0 45 45" enable-background="new 0 0 45 45" xml:space="preserve">
<g>
	<path d="M30.957,36.357"/>
	<path d="M15.176,36.357"/>
</g>
<path id="XMLID_1_" fill="#FF9933" stroke="#FF9933" stroke-miterlimit="10" d="M44.334,22.847c0,12.426-9.451,21.362-21.877,21.362
	c-12.426,0-21.707-8.936-21.707-21.362S10.116,0.792,22.542,0.792C34.969,0.792,44.334,10.42,44.334,22.847z"/>
<polygon points="13.752,32.85 14.309,33.135 14.309,17.658 13.752,17.33 "/>
<polygon points="21.708,14.705 21.74,30.188 22.128,30.01 22.457,30.061 22.457,14.609 22.191,14.517 "/>
<polygon points="30.889,17.016 30.172,17.406 30.172,33.156 30.889,32.732 "/>
<g>
	<polyline fill="none" points="24.154,14.756 22.191,13.953 14.298,17.18 8.813,14.203 8.813,30.627 14.389,33.652 22.128,30.498 
		22.251,30.498 24.135,31.258 29.99,33.652 35.566,30.627 35.566,14.203 30.08,17.18 28.109,16.373 	"/>
	<polygon points="29.99,15.505 28.668,14.964 28.109,16.373 30.08,17.18 35.566,14.203 35.566,30.627 29.99,33.652 24.135,31.258 
		22.251,30.498 22.128,30.498 14.389,33.652 8.813,30.627 8.813,14.203 14.298,17.18 22.191,13.953 24.154,14.756 23.367,12.795 
		22.191,12.313 14.389,15.505 7.296,11.654 7.296,31.529 14.298,35.328 22.191,32.102 30.08,35.328 37.084,31.529 37.084,11.654 	
		"/>
</g>
<path d="M26.461,7.615c-1.699,0-3.08,1.378-3.08,3.079c0,0.316,0.063,0.615,0.15,0.902H23.52l2.939,7.344l3.016-7.598h-0.006
	c0.045-0.208,0.068-0.425,0.068-0.648C29.539,8.993,28.16,7.615,26.461,7.615z M26.461,12.158c-0.729,0-1.318-0.591-1.318-1.318
	c0-0.728,0.59-1.319,1.318-1.319c0.727,0,1.318,0.591,1.318,1.319C27.779,11.566,27.188,12.158,26.461,12.158z"/>
</svg>
