<?xml version="1.0" encoding="utf-8"?>
<!-- Generator: Adobe Illustrator 16.0.0, SVG Export Plug-In . SVG Version: 6.00 Build 0)  -->
<!DOCTYPE svg PUBLIC "-//W3C//DTD SVG 1.1//EN" "http://www.w3.org/Graphics/SVG/1.1/DTD/svg11.dtd">
<svg version="1.1" id="Your_Icon" xmlns="http://www.w3.org/2000/svg" xmlns:xlink="http://www.w3.org/1999/xlink" x="0px" y="0px"
	 width="100px" height="100px" viewBox="0 0 100 100" enable-background="new 0 0 100 100" xml:space="preserve">
<path id="XMLID_1_" stroke="#FF9933" stroke-width="3" stroke-miterlimit="10" d="M99.279,50.785
	c0,28.098-21.373,48.305-49.473,48.305C21.707,99.09,0.72,78.883,0.72,50.785C0.721,22.684,21.901,0.91,50,0.91
	C78.1,0.91,99.279,22.682,99.279,50.785z"/>
<g>
	<path d="M69.029,80.782"/>
	<path d="M34.775,80.782"/>
</g>
<polygon fill="#FF9933" points="31.684,73.168 32.894,73.787 32.894,40.193 31.684,39.481 "/>
<polygon fill="#FF9933" points="48.954,33.784 49.023,67.39 49.865,67.004 50.579,67.114 50.579,33.574 50.001,33.375 "/>
<polygon fill="#FF9933" points="68.881,38.8 67.325,39.647 67.325,73.834 68.881,72.914 "/>
<g>
	<polyline fill="none" points="54.263,33.894 50.001,32.151 32.87,39.156 20.964,32.694 20.964,68.343 33.067,74.91 49.865,68.063 
		50.132,68.063 54.222,69.713 66.931,74.91 79.034,68.343 79.034,32.694 67.126,39.156 62.849,37.404 	"/>
	<polygon fill="#FF9933" points="66.931,35.52 64.062,34.345 62.849,37.404 67.126,39.156 79.034,32.694 79.034,68.343 
		66.931,74.91 54.222,69.713 50.132,68.063 49.865,68.063 33.067,74.91 20.964,68.343 20.964,32.694 32.87,39.156 50.001,32.151 
		54.263,33.894 52.555,29.637 50.001,28.591 33.067,35.52 17.671,27.161 17.671,70.303 32.87,78.548 50.001,71.544 67.126,78.548 
		82.328,70.303 82.328,27.161 	"/>
</g>
<path fill="#FF9933" d="M59.271,18.395c-3.688,0-6.686,2.991-6.686,6.683c0,0.686,0.136,1.335,0.325,1.958h-0.024l6.381,15.939
	l6.545-16.492H65.8c0.097-0.452,0.147-0.922,0.147-1.406C65.952,21.386,62.959,18.395,59.271,18.395z M59.271,28.255
	c-1.582,0-2.861-1.284-2.861-2.861c0-1.581,1.279-2.863,2.861-2.863c1.576,0,2.861,1.282,2.861,2.863
	C62.132,26.97,60.847,28.255,59.271,28.255z"/>
</svg>
