<?xml version="1.0" encoding="utf-8"?>
<!-- Generator: Adobe Illustrator 16.0.0, SVG Export Plug-In . SVG Version: 6.00 Build 0)  -->
<!DOCTYPE svg PUBLIC "-//W3C//DTD SVG 1.1//EN" "http://www.w3.org/Graphics/SVG/1.1/DTD/svg11.dtd">
<svg version="1.1" id="Layer_1" xmlns="http://www.w3.org/2000/svg" xmlns:xlink="http://www.w3.org/1999/xlink" x="0px" y="0px"
	 width="100px" height="100px" viewBox="0 0 100 100" enable-background="new 0 0 100 100" xml:space="preserve">
<path id="XMLID_1_" stroke="#000000" stroke-miterlimit="10" d="M99.279,50.785c0,28.098-21.373,48.305-49.473,48.305
	C21.707,99.09,0.72,78.883,0.72,50.785C0.721,22.684,21.901,0.91,50,0.91C78.1,0.91,99.279,22.682,99.279,50.785z"/>
<path fill="#FF9933" d="M75.036,77.37V57.74H63.48v19.63h-5.186V43.889h-11.63v33.407H41.48V29.073H29.925v48.223h-5.26V20.704h-2
	v58.592h7.26H41.48h5.185h11.558h5.185h11.556h6.963v-2h-6.889L75.036,77.37L75.036,77.37z M31.852,77.37V31.073h7.629V77.37H31.852
	L31.852,77.37z M48.665,77.37V45.889h7.631V77.37H48.665L48.665,77.37z M65.48,77.37V59.667h7.629v17.629H65.48V77.37z"/>
</svg>
