<?xml version="1.0" encoding="utf-8"?>
<!-- Generator: Adobe Illustrator 16.0.0, SVG Export Plug-In . SVG Version: 6.00 Build 0)  -->
<!DOCTYPE svg PUBLIC "-//W3C//DTD SVG 1.1//EN" "http://www.w3.org/Graphics/SVG/1.1/DTD/svg11.dtd">
<svg version="1.1" id="Layer_1" xmlns="http://www.w3.org/2000/svg" xmlns:xlink="http://www.w3.org/1999/xlink" x="0px" y="0px"
	 width="100px" height="100px" viewBox="0 0 100 100" enable-background="new 0 0 100 100" xml:space="preserve">
<path fill="#B1B1B1" d="M-2.023-3.37c-6.415,7.189-9.463,17.367-10.1,26.716c-0.35,5.129-0.778,10.023-1.734,15.084
	c-1.009,5.338-1.109,10.757-2.144,16.054c-1.946,9.959-2.646,21.027-1.236,30.984c1.021,7.207,1.717,15.369,7.858,19.73
	c3.62,2.57,9.179,3.293,13.516,4.052c4.193,0.733,8.249,1.282,12.464,2.125c2.448,0.489,4.88,0.319,7.412,0.399
	c2.118,0.065,4.016,0.73,6.061,0.901c4.319,0.362,8.987,0.687,13.248,0.214c9.448-1.048,18.921-3.336,28.682-2.475
	c6.104,0.539,11.871,0.766,18,0.461c4.322-0.214,7.943-0.083,11.723-1.966c6.799-3.39,5.366-14.239,6.01-20.929
	c0.347-3.596,2.185-7.562,3.205-11.174c1.062-3.762,1.459-7.414,2.353-11.224c1.054-4.5,2.304-9.144,2.522-13.753
	c0.187-3.868,0-7.792,0-11.666c0-3.963-1.604-6.573-2.02-10.32c-0.441-3.992,0.635-7.729,0.674-11.672
	c0.038-3.964,1.272-7.194,0.441-11.223c-0.669-3.244-3.001-6.403-4.938-8.929c-2.432-3.171-4.49-4.304-8.248-5.486
	c-3.348-1.053-7.006,0.179-10.596-0.181c-2.042-0.205-4.217-0.269-6.295-0.393c-2.365-0.141-4.424-0.904-6.734-1.221
	C73.788-9.846,69.18-9.28,64.92-9.031c-4.461,0.26-9.259,0.716-13.759,0.273c-5.088-0.5-10.05-1.802-15.251-1.57
	c-4.11,0.183-8.113,1.161-12.121,1.352c-3.73,0.178-7.647-0.005-11.272,0.169C8.401-8.609,4.041-8.712,0.21-7.416
	C-2.41-6.53-6.839-5.508-8.127-3.14c-2.252,4.141,0.044,10.71,0.044,15.258"/>
<path d="M74.286,77.266v-19.63H62.73v19.63h-5.186V43.784h-11.63v33.407H40.73V28.969H29.175v48.223h-5.26V20.599h-2v58.592h7.26
	H40.73h5.185h11.558h5.185h11.556h6.963v-2h-6.889L74.286,77.266L74.286,77.266z M31.101,77.266V30.969h7.63v46.297H31.101
	L31.101,77.266z M47.915,77.266V45.784h7.631v31.481H47.915L47.915,77.266z M64.73,77.266V59.563h7.629v17.629H64.73V77.266z"/>
</svg>
