<?xml version="1.0" encoding="utf-8"?>
<!-- Generator: Adobe Illustrator 16.0.0, SVG Export Plug-In . SVG Version: 6.00 Build 0)  -->
<!DOCTYPE svg PUBLIC "-//W3C//DTD SVG 1.1//EN" "http://www.w3.org/Graphics/SVG/1.1/DTD/svg11.dtd">
<svg version="1.1" id="Layer_1" xmlns="http://www.w3.org/2000/svg" xmlns:xlink="http://www.w3.org/1999/xlink" x="0px" y="0px"
	 width="100px" height="100px" viewBox="0 0 100 100" enable-background="new 0 0 100 100" xml:space="preserve">
<rect x="-12.363" y="-6.006" fill="#fe8a02" width="124.726" height="112.012"/>
<g>
	<path d="M50.453,26.459c0,1.432,1.162,2.594,2.595,2.594c1.435,0,2.595-1.162,2.595-2.594c0-1.434-1.16-2.595-2.595-2.595
		C51.615,23.864,50.453,25.025,50.453,26.459L50.453,26.459z M42.858,32.52c0,0.951,0.813,1.722,1.815,1.722h8.302
		c1.002,0,1.814-0.771,1.814-1.722s-0.813-1.722-1.814-1.722h-8.302C43.671,30.797,42.858,31.568,42.858,32.52L42.858,32.52z
		 M42.037,26.459c0,1.432,1.162,2.594,2.596,2.594c1.433,0,2.594-1.162,2.594-2.594c0-1.434-1.161-2.595-2.594-2.595
		C43.199,23.864,42.037,25.025,42.037,26.459L42.037,26.459z M42.027,40.459v4.833c0,0.501,0.406,0.907,0.907,0.907h3.582
		c0.112-1.155,1.086-2.058,2.271-2.058c0.313,0,0.611,0.063,0.882,0.177l2.321-2.674c0.396-0.457,1.082,0.138,0.685,0.595
		l-2.252,2.594c0.353,0.361,0.584,0.837,0.636,1.366h3.637c0.502,0,0.908-0.406,0.908-0.907v-4.833c0-0.501-0.406-0.908-0.908-0.908
		H42.934C42.433,39.551,42.027,39.958,42.027,40.459L42.027,40.459z M47.155,17.077c0,0.758,0.494,1.4,1.177,1.624v-0.087
		c0-0.317,0.248-0.479,0.479-0.479c0.229,0,0.477,0.161,0.477,0.479v0.119c0.738-0.188,1.284-0.858,1.284-1.655
		c0-0.943-0.765-1.708-1.709-1.708C47.92,15.369,47.155,16.133,47.155,17.077L47.155,17.077z M33.382,56.958l-0.833,0.176
		l-0.927-4.36c-0.205-0.967-1.156-1.586-2.124-1.379l-0.318,0.067c-0.967,0.205-1.584,1.156-1.378,2.123l0.926,4.36l-0.833,0.178
		l-1.877-2.083l-1.876-2.085l0.867-2.668l0.867-2.667l0.566-0.121c-0.168-0.847-0.163-1.664-0.069-2.423
		c0.595-4.85,5.163-7.795,10.092-8.428c0.332-0.436,0.855-0.717,1.445-0.717h7.047v-0.903H42.12c-0.931,0-1.685-0.755-1.685-1.686
		v-2.857h-1.002c-0.501,0-0.908-0.407-0.908-0.908v-3.669c0-0.501,0.406-0.907,0.908-0.907h1.001v-3.599
		c0-0.931,0.754-1.685,1.684-1.685h6.214v-1.03c-1.218-0.247-2.132-1.321-2.132-2.61c0-1.471,1.191-2.663,2.662-2.663
		c1.472,0,2.664,1.191,2.664,2.663c0,1.327-0.971,2.426-2.237,2.63v1.01h6.231c0.932,0,1.687,0.755,1.687,1.685V26h0.987
		c0.502,0,0.908,0.406,0.908,0.907v3.669c0,0.501-0.406,0.908-0.908,0.908h-0.987v2.857c0,0.931-0.756,1.686-1.687,1.686h-2.814
		v0.903h7.046c0.64,0,1.203,0.332,1.524,0.833c3.769-0.445,5.941-2.547,6.181-4.49c0.047-0.362,0.041-0.665-0.006-0.928
		l-0.482,0.104l-1.876-2.084l-1.878-2.085l0.866-2.667l0.868-2.667l0.834-0.177l0.926,4.36c0.205,0.968,1.155,1.584,2.123,1.379
		l0.317-0.067c0.97-0.206,1.584-1.156,1.379-2.124l-0.926-4.36l0.832-0.177l1.877,2.084l1.877,2.084l-0.867,2.667l-0.866,2.667
		l-0.565,0.121c0.168,0.846,0.161,1.664,0.068,2.423c-0.607,4.947-5.352,7.914-10.393,8.464v16.257c0,1.001-0.813,1.813-1.813,1.813
		H59.4v18.92h0.873v4.69h0.988v1.615H49.467V83.97h1.039v-4.69h1.127v-18.92h-5.664v18.92h0.873v4.69h0.99v1.615H36.034V83.97h1.04
		v-4.69H38.2v-18.92h-0.291c-1.002,0-1.814-0.813-1.814-1.813V42.293c-3.177,0.659-5.003,2.563-5.221,4.335
		c-0.045,0.363-0.04,0.665,0.006,0.927l0.483-0.102l1.876,2.084l1.877,2.083l-0.866,2.67L33.382,56.958L33.382,56.958z"/>
</g>
</svg>
