<?xml version="1.0" encoding="utf-8"?>
<!-- Generator: Adobe Illustrator 16.0.0, SVG Export Plug-In . SVG Version: 6.00 Build 0)  -->
<!DOCTYPE svg PUBLIC "-//W3C//DTD SVG 1.1//EN" "http://www.w3.org/Graphics/SVG/1.1/DTD/svg11.dtd">
<svg version="1.1" id="Layer_1" xmlns="http://www.w3.org/2000/svg" xmlns:xlink="http://www.w3.org/1999/xlink" x="0px" y="0px"
	 width="100px" height="100px" viewBox="0 0 100 100" enable-background="new 0 0 100 100" xml:space="preserve">
<path fill="#2ECC71" d="M-19.787-13.274c0.278,5.661-2.06,11.228-2.612,16.818c-0.638,6.463-0.78,12.415,0.012,18.888
	c1.434,11.72-0.789,22.854-0.776,34.537c0.007,6.424,1.133,12.232,2.033,18.532c0.852,5.96-1.808,12.063-1.279,18.104
	c0.462,5.28,1.717,14.622,6.702,17.699c2.659,1.642,7.094,1.822,10.122,1.536c3.977-0.376,7.86-1.316,11.876-1.432
	c3.477-0.101,6.756,0.664,10.201,0.763c6.709,0.191,13.102-0.754,19.72,0.158c5.927,0.816,11.349,3.014,17.372,3.195
	c6.953,0.21,13.079,0.729,19.984-0.469c2.061-0.357,10.389-2.229,11.13-0.767c5.522,0.319,14.806,0.872,18.722-3.633
	c1.92-2.209,3.04-7.059,2.946-9.846c-0.28-8.346-0.724-16.838-0.724-25.31c0-8.069,0.738-16.069,0.724-24.12
	c-0.011-6.206-0.433-12.205-0.476-18.356c-0.049-6.743-1.574-13.508-1.225-20.278c0.309-5.984,2.81-13.247,0.923-19.009
	c-1.714-5.236-8.275-7.509-13.188-8.627c-7.565-1.722-16.451-1.167-24.117-1.467c-6.521-0.255-13.328-1.183-19.844-0.735
	c-2.892,0.199-5.317,0.931-8.022,1.61c-4.763,1.195-10.625,0.285-15.498,0.279c-5.993-0.007-12.766-0.118-18.663,0.947
	c-3.987,0.72-7.186,2.001-11.33,2.435c-7.504,0.786-15.271,0.161-22.672,1.441"/>
<path d="M73.023,61.252c0-3.814-3.1-6.918-6.912-6.918h-0.766c2.756-2.602,4.406-6.273,4.408-10.155
	c0-7.69-6.256-13.947-13.947-13.947c-2.746,0-5.309,0.797-7.469,2.173l0,0c-0.104-0.359-0.191-0.593-0.331-0.935
	c-1.579-3.865-5.381-6.593-9.807-6.593c-5.842,0-10.592,4.751-10.592,10.592c-0.003,2.287,0.716,4.465,2.074,6.296
	c0.863,1.162,1.927,2.12,3.17,2.848c0.254,0.149,0.517,0.288,0.782,0.415h-4.105c-2.601,0-4.711,2.112-4.711,4.714l0.027,10.529
	h13.678l0.033,13.979c0.002,0.705,0.098,0.871,0.802,0.871h32.999c0.338,0,0.701-0.396,0.701-0.738L73.023,61.252z M41.107,72.566
	l-0.029-11.314c0-2.404,1.956-4.363,4.361-4.363h4.901c0.547,0,1.031-0.352,1.205-0.869c0.176-0.518-0.002-1.094-0.437-1.426
	c-0.067-0.053-0.142-0.098-0.218-0.135c-0.285-0.139-0.563-0.285-0.834-0.445c-1.33-0.777-2.479-1.81-3.411-3.063
	c-1.46-1.972-2.232-4.313-2.229-6.772c0-6.282,5.109-11.392,11.391-11.392c6.283,0,11.393,5.11,11.393,11.392
	c-0.002,4.362-2.551,8.4-6.496,10.285c-0.539,0.258-0.828,0.854-0.697,1.436c0.133,0.582,0.65,0.994,1.246,0.994h0.002l4.857-0.004
	c2.404,0,4.361,1.957,4.361,4.365L70.5,72.566H41.107L41.107,72.566z"/>
</svg>
